<?xml version="1.0" encoding="UTF-8"?>
<svg version="1.1" xmlns="http://www.w3.org/2000/svg" width="1024" height="1024">
<path d="M0 0 C337.92 0 675.84 0 1024 0 C1024 337.92 1024 675.84 1024 1024 C686.08 1024 348.16 1024 0 1024 C0 686.08 0 348.16 0 0 Z " fill="#F8F8F8" transform="translate(0,0)"/>
<path d="M0 0 C7.87913293 4.2664956 11.55703979 12.14374033 15.36303711 19.86035156 C16.26743047 21.64833055 17.17185689 23.43629312 18.07739258 25.22369385 C19.05233895 27.15255759 20.02126394 29.08436276 20.98950195 31.01660156 C24.28003714 37.56957645 27.65111245 44.0814247 31.01068115 50.59918213 C32.17860511 52.86630703 33.34461961 55.13440373 34.51000977 57.40283203 C38.72713746 65.6104551 42.96196257 73.80823223 47.23803711 81.98535156 C51.57322767 90.27756138 55.90139957 98.57332815 60.20986938 106.87945557 C60.89003896 108.18988884 61.57099596 109.49991373 62.2527771 110.80950928 C63.20176623 112.63267766 64.14796931 114.45726576 65.09350586 116.28222656 C65.91371216 117.86148926 65.91371216 117.86148926 66.75048828 119.47265625 C68.05053711 122.11035156 68.05053711 122.11035156 69.05053711 125.11035156 C69.71053711 124.78035156 70.37053711 124.45035156 71.05053711 124.11035156 C82.48992338 122.9569589 93.69540288 125.53473915 103.05053711 132.34472656 C109.98347889 138.46521423 114.61666145 145.9390036 116.05053711 155.11035156 C116.12976766 157.75078438 116.16376472 160.3690341 116.15600586 163.00878906 C116.1694604 164.55567802 116.18448328 166.102554 116.20092773 167.64941406 C116.22373849 170.06784466 116.23803997 172.4847963 116.22558594 174.90332031 C115.72831443 185.32255734 115.72831443 185.32255734 119.92553711 194.36035156 C120.96222706 195.28264282 122.00335888 196.19998626 123.05053711 197.11035156 C124.69506836 200.02441406 124.69506836 200.02441406 125.86303711 202.73535156 C126.26135742 203.63511719 126.65967773 204.53488281 127.07006836 205.46191406 C129.23464035 211.30884556 129.18294852 216.84501355 129.14819336 223.00488281 C129.14607094 224.4259156 129.14607094 224.4259156 129.14390564 225.87565613 C129.13832322 228.89142051 129.12577393 231.90710974 129.11303711 234.92285156 C129.10801984 236.97167861 129.10345733 239.02050683 129.09936523 241.06933594 C129.08835954 246.08303662 129.07110699 251.09668136 129.05053711 256.11035156 C129.98510742 256.40425781 130.91967773 256.69816406 131.88256836 257.00097656 C136.65118708 258.6708751 139.25070719 260.73921456 141.80053711 265.11035156 C143.76628435 269.82814494 144.18498176 273.60940334 144.22753906 278.73974609 C144.23411026 279.39726364 144.24068146 280.05478119 144.24745178 280.73222351 C144.26711653 282.90253837 144.27883478 285.0727841 144.28881836 287.24316406 C144.29289389 287.98826107 144.29696941 288.73335808 144.30116844 289.50103378 C144.32200455 293.44827748 144.33631438 297.39548671 144.34570312 301.34277344 C144.356736 305.39771102 144.39110616 309.4520951 144.43087482 313.50683784 C144.45716409 316.64349305 144.465406 319.78001909 144.4689846 322.91677475 C144.47382232 324.41015212 144.48535497 325.90352484 144.5040226 327.39679337 C144.71717017 345.58372923 144.71717017 345.58372923 138.63838196 352.78274536 C135.61362588 355.53932345 132.99720162 356.46259106 129.05053711 357.11035156 C129.06101074 358.1182373 129.07148437 359.12612305 129.08227539 360.16455078 C129.11881195 363.94787972 129.14155848 367.73119346 129.16040039 371.51464844 C129.17038201 373.143907 129.1839721 374.773148 129.20141602 376.40234375 C129.39623201 395.08175989 127.0862263 409.41407534 113.83178711 423.46191406 C101.52330669 435.41073109 87.57129084 438.42592484 71.01445007 438.36431885 C69.72074094 438.36743883 68.42703181 438.37055881 67.09411937 438.37377334 C63.52328626 438.38208565 59.95256072 438.37801233 56.38172734 438.3718009 C52.522717 438.36726262 48.66372473 438.37426707 44.80471802 438.37976074 C37.25199897 438.38864248 29.69931973 438.38673795 22.14659914 438.38093546 C16.00513212 438.37641318 9.86367623 438.37580852 3.72220802 438.37798309 C2.84710259 438.37828956 1.97199717 438.37859603 1.07037339 438.37891178 C-0.70759303 438.37955125 -2.48555945 438.38019968 -4.26352587 438.38085696 C-20.92705624 438.38655695 -37.59056459 438.38000809 -54.25409134 438.36925623 C-68.53659277 438.36032572 -82.81906167 438.36186928 -97.1015625 438.37109375 C-113.70204284 438.38181035 -130.30250387 438.38600271 -146.90298718 438.37986922 C-148.67522029 438.37923215 -150.4474534 438.37860341 -152.21968651 438.37798309 C-153.52750579 438.37752027 -153.52750579 438.37752027 -154.86174566 438.37704809 C-160.99072918 438.37532497 -167.11970041 438.37822809 -173.24868202 438.3829422 C-180.72543325 438.38856669 -188.2021425 438.3870019 -195.67888895 438.37638071 C-199.48998807 438.37114433 -203.30101735 438.3690323 -207.11211586 438.37567902 C-211.25227899 438.38279007 -215.39226764 438.37426749 -219.53242493 438.36431885 C-220.72476236 438.36878029 -221.9170998 438.37324173 -223.14556867 438.37783837 C-233.6248331 438.32915177 -243.69749509 437.51398294 -253.07446289 432.54785156 C-253.75041504 432.19851563 -254.42636719 431.84917969 -255.12280273 431.48925781 C-269.03657423 423.99594951 -278.71343445 411.61427421 -283.56774902 396.64891052 C-285.97963063 387.42616354 -285.38427407 377.76614384 -285.36938477 368.3059082 C-285.37673249 366.09717888 -285.38532076 363.88845339 -285.39505005 361.67973328 C-285.41719808 355.70452865 -285.42020017 349.72946219 -285.41830254 343.75422215 C-285.41818255 338.75679384 -285.42675799 333.7593945 -285.43508005 328.76197428 C-285.45538575 316.29541524 -285.45647317 303.82891753 -285.44927293 291.36235069 C-285.44369747 280.55902706 -285.46453053 269.75594055 -285.4976334 258.95267231 C-285.53143901 247.83292993 -285.54605671 236.71328445 -285.54191637 225.59348768 C-285.53985255 219.36128964 -285.54527217 213.12932798 -285.56980896 206.89717293 C-285.59212617 201.03566613 -285.59015643 195.17465214 -285.56988144 189.31314278 C-285.5664805 187.16863113 -285.57152072 185.02408597 -285.58586502 182.8796196 C-285.68184679 167.46027401 -284.70371762 156.0197621 -273.49633789 144.37988281 C-263.0940412 135.11035156 -263.0940412 135.11035156 -256.94946289 135.11035156 C-257.05258789 133.83160156 -257.15571289 132.55285156 -257.26196289 131.23535156 C-257.23468468 125.46146261 -255.44755366 120.694308 -251.94946289 116.11035156 C-245.61161747 110.18281752 -237.60130085 106.69054885 -229.88696289 102.92285156 C-228.67241795 102.32134871 -227.4582238 101.71913703 -226.24438477 101.11621094 C-218.52597557 97.29533798 -210.75787434 93.57976659 -202.98461914 89.87207031 C-191.83308145 84.55235682 -180.73312936 79.13113395 -169.64486694 73.68096924 C-164.09785241 70.95447865 -158.54906732 68.23159646 -153.00024414 65.50878906 C-151.89268265 64.96523773 -150.78512115 64.4216864 -149.64399719 63.86166382 C-139.31934002 58.79685622 -128.97956727 53.76337869 -118.63696289 48.73535156 C-107.85271099 43.49240632 -97.09115876 38.21177828 -86.38183594 32.81689453 C-79.34890632 29.28356831 -72.24981515 25.89832348 -65.13769531 22.52783203 C-59.47680043 19.83271334 -53.85110388 17.07597155 -48.25024414 14.25878906 C-47.58838104 13.92609009 -46.92651794 13.59339111 -46.24459839 13.25061035 C-42.99382303 11.61492181 -39.74611826 9.973457 -36.50219727 8.32421875 C-10.75147954 -4.71290111 -10.75147954 -4.71290111 0 0 Z " fill="#002A53" transform="translate(586.949462890625,134.8896484375)"/>
<path d="M0 0 C0.698181 0.14137848 1.396362 0.28275697 2.11570001 0.42841965 C10.29845033 1.95416416 18.17731035 2.28369377 26.48675537 2.25828552 C27.91446858 2.26114636 29.34218025 2.26488771 30.76988912 2.26942402 C34.66090305 2.27933024 38.55182603 2.2770517 42.44284654 2.27269709 C46.65142752 2.27020715 50.85998543 2.27930645 55.06855774 2.28707886 C62.35131994 2.2990899 69.63406032 2.30422998 76.91683197 2.30496025 C87.45505217 2.30628916 97.99321959 2.32142857 108.5314211 2.34045542 C125.64284842 2.371255 142.75427707 2.3954416 159.86572266 2.41333008 C160.88860025 2.41440276 161.91147785 2.41547544 162.96535173 2.41658062 C174.38398412 2.42840741 185.80261703 2.43861351 197.22125244 2.44702148 C201.36608888 2.45009571 205.51092531 2.45318445 209.65576172 2.45629883 C210.67859929 2.45706417 211.70143685 2.45782951 212.7552695 2.45861804 C229.80985747 2.47169908 246.86440701 2.49633409 263.91896653 2.53004223 C274.43161093 2.55032386 284.94417316 2.56062278 295.45683727 2.55805302 C302.65616252 2.55701801 309.85542276 2.56665385 317.05472532 2.58469205 C321.20764159 2.59473519 325.360414 2.59986699 329.51333809 2.59192467 C333.31661902 2.58473741 337.11961987 2.59134712 340.92286518 2.60881007 C342.94643 2.61451992 344.97001994 2.605496 346.99357009 2.59590715 C355.05233648 2.65066086 361.37399929 3.01862164 367.8125 8.3125 C372.87831364 14.53621391 373.42171288 19.46594158 373.29296875 27.2109375 C373.28872391 28.17907379 373.28447906 29.14721008 373.28010559 30.14468384 C373.26337956 33.22174473 373.22573831 36.29813872 373.1875 39.375 C373.17244532 41.46743842 373.15875829 43.55988717 373.14648438 45.65234375 C373.11349588 50.76848418 373.06175528 55.88412921 373 61 C372.19979431 61.00586624 371.39958862 61.01173248 370.57513428 61.01777649 C362.98513925 61.07599807 355.39546153 61.14823957 347.8057518 61.23571491 C343.90502796 61.28019211 340.00440313 61.319496 336.10351562 61.34643555 C332.32964773 61.37269729 328.55616564 61.41325515 324.78253937 61.46318626 C323.35230609 61.47970213 321.92200633 61.49131049 320.49169159 61.49761391 C304.4115681 61.5755575 289.98830876 64.59693266 277.91015625 75.90625 C267.74071346 87.0531239 263.20411988 99.26304925 263.68359375 114.296875 C264.85285917 127.98161105 269.63059627 140.62383418 280 150 C289.50469407 157.13583185 299.73907663 162.05032136 311.69628906 162.20532227 C312.36011597 162.21522186 313.02394287 162.22512146 313.70788574 162.23532104 C315.89376302 162.2668126 318.079662 162.29164437 320.265625 162.31640625 C321.78449049 162.33698645 323.30335038 162.35798321 324.82220459 162.37937927 C328.81371525 162.43448984 332.80527665 162.48394753 336.796875 162.53222656 C340.8724416 162.58252217 344.9479348 162.63816611 349.0234375 162.69335938 C357.01556288 162.80080616 365.00774979 162.90228087 373 163 C373.09975053 167.94378949 373.17187902 172.88697822 373.21972656 177.83154297 C373.23969699 179.50938131 373.26688332 181.18715136 373.30175781 182.86474609 C373.54440157 194.84706595 373.37441705 205.22266878 364.6953125 214.46875 C355.58175881 222.70034688 345.88965431 223.29784637 334.07743835 223.26742554 C332.13709794 223.27422221 332.13709794 223.27422221 330.15755874 223.28115618 C326.58254548 223.29334586 323.00762608 223.29313051 319.4325968 223.29076743 C315.57085403 223.29035824 311.70914094 223.30140806 307.84741211 223.31088257 C300.28754675 223.32747103 292.72771259 223.33299113 285.16783055 223.33410732 C279.02108574 223.33505875 272.8743512 223.33917378 266.72760963 223.34550858 C249.2885954 223.36311455 231.84960575 223.37234837 214.41058256 223.37084763 C213.00138594 223.37072776 213.00138594 223.37072776 211.5637207 223.37060547 C210.62310525 223.37052371 209.68248979 223.37044195 208.71337084 223.37035771 C193.46996554 223.36954483 178.22665906 223.38868461 162.98328235 223.4168822 C147.31986704 223.44562749 131.6564999 223.45942161 115.99305755 223.45769465 C107.20386792 223.45703135 98.4147819 223.46249734 89.62561607 223.48405075 C82.14255998 223.50228413 74.65965448 223.50659216 67.17658576 223.4930319 C63.36148496 223.4865133 59.54667292 223.48634467 55.73159981 223.5037384 C51.58868684 223.52243198 47.446439 223.50988602 43.30351257 223.49447632 C42.10758018 223.50476344 40.91164778 223.51505057 39.67947501 223.52564943 C28.65508971 223.43521293 18.3981687 220.41574142 10 213 C3.18552194 205.09838731 -0.48438279 197.0387762 -0.36076355 186.63500977 C-0.36332682 185.83188166 -0.3658901 185.02875355 -0.36853105 184.20128822 C-0.37344177 181.5311182 -0.3570213 178.86152349 -0.34057617 176.19140625 C-0.33972931 174.26906854 -0.34020619 172.34672985 -0.34190369 170.4243927 C-0.34276276 165.22040139 -0.32515111 160.01661846 -0.30418181 154.81267548 C-0.28540044 149.36878014 -0.28366342 143.92487977 -0.28010559 138.48095703 C-0.27078943 128.17867261 -0.2461814 117.87648394 -0.21605712 107.57424164 C-0.18249981 95.84273296 -0.16602374 84.11121965 -0.15097082 72.37967491 C-0.11963151 48.25306357 -0.0668793 24.12653715 0 0 Z " fill="#1F99F6" transform="translate(322,330)"/>
<path d="M0 0 C2.16494387 2.68787717 3.47589038 4.93934567 5 8 C5.59989746 9.13775879 6.19979492 10.27551758 6.81787109 11.44775391 C8.59606532 14.82477348 10.33804829 18.21924082 12.07046509 21.61993408 C13.96441657 25.33746648 15.86992658 29.04907491 17.7734375 32.76171875 C18.14509537 33.48746094 18.51675323 34.21320313 18.89967346 34.9609375 C21.66967477 40.36719321 24.47207253 45.75536751 27.3125 51.125 C30.89755224 57.90504472 34.45624443 64.69826659 38 71.5 C41.65206913 78.50775858 45.31463422 85.5096933 49 92.5 C52.68536639 99.49030786 56.34769905 106.49236143 60 113.5 C63.80408492 120.79608981 67.61170451 128.09026611 71.4375 135.375 C71.82615234 136.11685547 72.21480469 136.85871094 72.61523438 137.62304688 C72.98841797 138.33267578 73.36160156 139.04230469 73.74609375 139.7734375 C74.10815918 140.46276367 74.47022461 141.15208984 74.84326172 141.86230469 C75.66849482 143.38736612 76.52239927 144.89705663 77.39501953 146.39550781 C77.85376465 147.18538086 78.31250977 147.97525391 78.78515625 148.7890625 C79.20804932 149.5001416 79.63094238 150.2112207 80.06665039 150.94384766 C81 153 81 153 81 157 C40.41 157 -0.18 157 -42 157 C-38 154 -38 154 -36.03515625 152.74609375 C-30.25581867 148.91227575 -27.07948746 144.64094384 -25 138 C-23.79191883 130.50562032 -25.04323356 123.4988231 -29 117 C-34.03540691 111.21463887 -38.98498049 108.36384792 -46.70703125 107.6640625 C-48.0752675 107.63468831 -49.44395083 107.62245918 -50.8125 107.625 C-51.54807129 107.62371094 -52.28364258 107.62242187 -53.04150391 107.62109375 C-59.29901204 107.73808137 -64.98587826 108.98928031 -71.01782227 110.55688477 C-76.64843046 111.99702743 -82.20287816 113.22591465 -88 112 C-91.41311667 109.47429367 -92.66637768 108.00086696 -94 104 C-94.4866946 99.7008644 -94.33928305 97.57678118 -92.125 93.8125 C-87.51066868 88.86762919 -79.41150373 86.31027016 -72.75756836 85.84228516 C-71.95971924 85.82472168 -71.16187012 85.8071582 -70.33984375 85.7890625 C-69.46392578 85.76070313 -68.58800781 85.73234375 -67.68554688 85.703125 C-65.84981738 85.65093653 -64.0138451 85.60669686 -62.17773438 85.5703125 C-61.30310547 85.539375 -60.42847656 85.5084375 -59.52734375 85.4765625 C-58.33226196 85.4468335 -58.33226196 85.4468335 -57.11303711 85.41650391 C-54.46852918 84.89524099 -53.57348213 84.17021373 -52 82 C-51.28536515 76.55042978 -51.28536515 76.55042978 -53.46875 71.765625 C-57.21193404 69.1546386 -60.48786464 69.52666981 -64.9375 69.6875 C-65.73607422 69.69716797 -66.53464844 69.70683594 -67.35742188 69.71679688 C-71.34822803 69.79284372 -75.10721668 70.03270233 -79 71 C-79.27714844 70.28972656 -79.55429687 69.57945312 -79.83984375 68.84765625 C-80.20207031 67.92855469 -80.56429687 67.00945312 -80.9375 66.0625 C-81.29714844 65.14597656 -81.65679687 64.22945313 -82.02734375 63.28515625 C-82.7996218 61.07581467 -82.7996218 61.07581467 -84 60 C-88.10550087 59.59749991 -90.63436409 59.84044978 -94.4375 61.5 C-97.39827255 63.86096631 -97.39827255 63.86096631 -97.4375 67.875 C-97.20969021 71.28524359 -96.5801387 74.63423666 -96 78 C-96.65226563 78.46148437 -97.30453125 78.92296875 -97.9765625 79.3984375 C-105.16780096 84.76534998 -110.13156188 90.39468565 -113 99 C-113.57887976 107.2490366 -112.15579759 114.72315563 -107 121.375 C-101.2640425 127.30295608 -94.06585997 129.16228557 -86 129.5625 C-79.35622549 129.37971673 -73.20946876 127.70706532 -66.88671875 125.77954102 C-60.63238435 123.92162802 -54.36193973 122.68445837 -48.125 125.125 C-44.78259988 128.07417658 -43.4430256 131.22789762 -42.375 135.5 C-43.44081712 139.76326846 -46.47337619 141.62079999 -50 144 C-58.83919218 148.85320916 -67.09023561 148.26185244 -76.89453125 147.75585938 C-83.32278218 147.32672538 -83.32278218 147.32672538 -88.7265625 150.25390625 C-90.16673558 153.13397987 -90.16673558 153.13397987 -91 157 C-129.28 157 -167.56 157 -207 157 C-228.15679125 114.6864175 -228.15679125 114.6864175 -227 108 C-222.51078914 103.48330295 -216.45613706 101.08160425 -210.796875 98.34375 C-209.6868512 97.80077271 -208.57682739 97.25779541 -207.4331665 96.69836426 C-204.47265794 95.2517727 -201.50954517 93.81070438 -198.54510498 92.37219238 C-195.62533058 90.95355391 -192.70939101 89.52707647 -189.79296875 88.1015625 C-175.4202275 81.0842368 -161.00929261 74.14734154 -146.58422852 67.23834229 C-141.17677943 64.64713457 -135.77512147 62.04394161 -130.375 59.4375 C-128.62678955 58.59384888 -128.62678955 58.59384888 -126.84326172 57.7331543 C-115.40237721 52.20753197 -103.98478238 46.63421624 -92.56555176 41.06402588 C-82.2415011 36.02896202 -71.90819505 31.01619693 -61.53613281 26.08056641 C-55.92434543 23.40725093 -50.32572906 20.707909 -44.734375 17.9921875 C-44.00495697 17.63797226 -43.27553894 17.28375702 -42.52401733 16.91880798 C-38.91626497 15.16632471 -35.30939336 13.41205507 -31.70361328 11.65551758 C-28.42975188 10.06144298 -25.14950621 8.48104166 -21.86706543 6.90472412 C-20.02558221 6.01239638 -18.19469916 5.10075819 -16.36425781 4.18603516 C-15.23600586 3.63608887 -14.10775391 3.08614258 -12.9453125 2.51953125 C-11.96320801 2.03202393 -10.98110352 1.5445166 -9.96923828 1.04223633 C-6.42450143 -0.20200653 -3.73040651 -0.39317124 0 0 Z " fill="#34C05B" transform="translate(578,155)"/>
<path d="M0 0 C11.88 0 23.76 0 36 0 C37.81484633 4.83959021 39.4844839 9.3860304 40.88183594 14.31054688 C41.38816559 16.08540466 41.38816559 16.08540466 41.90472412 17.89611816 C42.26100891 19.15758667 42.6172937 20.41905518 42.984375 21.71875 C43.36656861 23.06238582 43.7490828 24.4059305 44.13189697 25.74938965 C45.1381822 29.28371017 46.14062686 32.81910785 47.14208984 36.35479736 C48.72445383 41.93866755 50.31286113 47.52082434 51.90055847 53.10317993 C52.28890121 54.46883989 52.67709565 55.83454203 53.06513977 57.20028687 C56.65030136 69.8176971 60.30228334 82.41510836 64 95 C66.42038791 87.62621768 68.83644145 80.2510204 71.25 72.875 C71.79072647 71.2226384 71.79072647 71.2226384 72.34237671 69.53689575 C77.76082118 52.96796043 83.09116665 36.37414664 88.28027344 19.73193359 C88.51157455 18.99273178 88.74287567 18.25352997 88.98118591 17.4919281 C89.59331106 15.5348539 90.20266608 13.57691384 90.81176758 11.61889648 C92.09605934 7.7074404 93.55445869 3.85477682 95 0 C105.23 0 115.46 0 126 0 C136.47722362 31.95484365 146.82275919 63.94832877 157 96 C157.20866699 95.25919189 157.41733398 94.51838379 157.63232422 93.75512695 C163.80458721 71.89407586 170.18805256 50.09676789 176.625 28.3125 C176.83168053 27.61303379 177.03836105 26.91356758 177.25130463 26.19290543 C179.83164152 17.46117763 182.41548161 8.73049184 185 0 C196.88 0 208.76 0 221 0 C217.62557856 12.3728786 217.62557856 12.3728786 215.92553711 17.75415039 C215.54278122 18.96958527 215.16002533 20.18502014 214.76567078 21.43728638 C214.35290902 22.74074741 213.9401329 24.04420389 213.52734375 25.34765625 C213.08696882 26.74398134 212.64681465 28.14037607 212.2068634 29.53683472 C211.27135561 32.50519488 210.33469711 35.47318823 209.39709473 38.44088745 C206.91933609 46.28436326 204.45010633 54.1305267 201.98046875 61.9765625 C201.73041706 62.77077291 201.48036537 63.56498333 201.22273636 64.38326073 C196.02646699 80.88935357 190.87726114 97.40985695 185.75 113.9375 C185.36673553 115.17178741 184.98347107 116.40607483 184.58859253 117.67776489 C183.51118682 121.14814876 182.4349947 124.61890596 181.359375 128.08984375 C181.04579544 129.10021698 180.73221588 130.11059021 180.40913391 131.15158081 C180.11910995 132.08890045 179.829086 133.02622009 179.53027344 133.99194336 C179.2813031 134.79562851 179.03233276 135.59931366 178.77581787 136.42735291 C177.81659088 139.60819293 176.91271354 142.80550259 176 146 C164.45 146 152.9 146 141 146 C131.47559218 119.8078785 122.40644981 93.46442095 113.67773438 66.99658203 C113.33677734 65.9651709 112.99582031 64.93375977 112.64453125 63.87109375 C112.20137573 62.52422485 112.20137573 62.52422485 111.74926758 61.15014648 C111.04707891 58.98750617 111.04707891 58.98750617 110 57 C109.71264984 57.85174301 109.42529968 58.70348602 109.12924194 59.58103943 C106.39508439 67.68473871 103.65977673 75.78804872 100.92323875 83.89094448 C99.51705893 88.05477477 98.1112942 92.21874415 96.70654297 96.38305664 C95.34593928 100.416442 93.98416063 104.44942903 92.62163162 108.48216438 C92.10703955 110.00586435 91.59284157 111.52969748 91.07908249 113.05367851 C88.32561828 121.22045544 85.54211008 129.37634521 82.69775391 137.51196289 C82.44248617 138.24811294 82.18721844 138.98426298 81.92421532 139.7427206 C80.11638601 144.88361399 80.11638601 144.88361399 79 146 C76.47905924 146.08847743 73.98569107 146.11527301 71.46484375 146.09765625 C70.33496788 146.09553383 70.33496788 146.09553383 69.18226624 146.09336853 C66.7673044 146.08775376 64.35243399 146.07519883 61.9375 146.0625 C60.30403779 146.0574869 58.67057414 146.05292366 57.03710938 146.04882812 C53.02470415 146.03777954 49.01236759 146.02050506 45 146 C34.76217509 113.30658544 24.54762011 80.60593515 14.39556885 47.88577271 C13.42760869 44.76610895 12.45878453 41.64671565 11.48919678 38.52755737 C10.33943236 34.82849858 9.19158586 31.12884989 8.04517937 27.42874908 C7.62494739 26.07341241 7.20410142 24.71826592 6.78256416 23.36333466 C6.20083439 21.49302096 5.62173823 19.62188877 5.04272461 17.75073242 C4.7188829 16.70688889 4.3950412 15.66304535 4.06138611 14.58757019 C2.62944201 9.74748426 1.32807571 4.86961093 0 0 Z " fill="#012B53" transform="translate(421,612)"/>
<path d="M0 0 C13.86 0 27.72 0 42 0 C54.63270171 23.83913065 67.05987562 47.80553745 79 72 C82.03047409 68.32700569 84.03963274 64.25224044 86.17578125 60.02734375 C86.77916824 58.84558563 86.77916824 58.84558563 87.39474487 57.63995361 C88.70402423 55.07416689 90.00820946 52.50582575 91.3125 49.9375 C92.66360412 47.28725848 94.01608296 44.63772164 95.3686676 41.98823547 C96.27471512 40.21329215 97.18034392 38.43813503 98.08555603 36.6627655 C102.08572833 28.82002123 106.12741274 20.99936147 110.1875 13.1875 C110.76862549 12.06915771 111.34975098 10.95081543 111.94848633 9.79858398 C112.93809478 7.89437186 113.92809228 5.99036179 114.91870117 4.08666992 C115.62204641 2.72936765 116.31633868 1.36732263 117 0 C130.86 0 144.72 0 159 0 C159 48.18 159 96.36 159 146 C148.11 146 137.22 146 126 146 C125.67 116.3 125.34 86.6 125 56 C123.02 59.63 121.04 63.26 119 67 C116.9865061 70.58777626 114.96714734 74.17141957 112.9375 77.75 C112.38167236 78.73226562 111.82584473 79.71453125 111.25317383 80.7265625 C108.35575184 85.84641341 105.45311487 90.96327508 102.546875 96.078125 C101.42684227 98.05194656 100.30704666 100.0259027 99.1875 102 C98.64617432 102.95318115 98.10484863 103.9063623 97.54711914 104.88842773 C93.7358512 111.62558845 90.09334039 118.43209675 86.5859375 125.33203125 C85 128 85 128 82 130 C79.0625 130.4375 79.0625 130.4375 76 130 C73.14326476 126.87746568 71.12063093 123.61699446 69.22265625 119.8515625 C68.71589355 118.85785645 68.20913086 117.86415039 67.68701172 116.84033203 C67.15092285 115.77927246 66.61483398 114.71821289 66.0625 113.625 C61.65737612 105.03131559 57.1445804 96.52230166 52.375 88.125 C51.89812744 87.28533691 51.42125488 86.44567383 50.92993164 85.58056641 C45.66572463 76.3609863 40.31909349 67.18752512 35 58 C34.67 87.04 34.34 116.08 34 146 C22.78 146 11.56 146 0 146 C0 97.82 0 49.64 0 0 Z " fill="#012B53" transform="translate(241,612)"/>
<path d="M0 0 C5.3295235 4.63507044 10.03952205 9.87653185 14.0625 15.6875 C14.0625 16.3475 14.0625 17.0075 14.0625 17.6875 C12.14585149 18.99887121 10.16223325 20.21265561 8.15625 21.3828125 C7.55695679 21.73511932 6.95766357 22.08742615 6.34020996 22.45040894 C4.41829811 23.57809194 2.4905509 24.69535194 0.5625 25.8125 C-0.7386775 26.57354167 -2.03946425 27.33525184 -3.33984375 28.09765625 C-6.53455864 29.96872608 -9.7345865 31.83049164 -12.9375 33.6875 C-13.71456299 32.90576416 -14.49162598 32.12402832 -15.29223633 31.31860352 C-26.17483584 20.4942588 -36.66602993 15.40446078 -52.06079102 15.37060547 C-62.99455621 15.58538296 -71.0547416 20.09949358 -78.80859375 27.46484375 C-88.45108838 37.60501552 -90.37416756 49.09690367 -90.1484375 62.6484375 C-89.71704574 74.06167879 -85.05265685 85.14601324 -76.75 93.0625 C-66.37821415 101.62361815 -55.97151395 103.23478456 -42.9375 102.6875 C-30.46095616 101.35818787 -22.18520243 94.72487607 -13.9375 85.6875 C-4.57140584 90.13508661 4.23813712 95.26268676 13.0625 100.6875 C11.62500345 105.19000356 9.12397912 108.24054278 5.9375 111.625 C5.44032471 112.15569092 4.94314941 112.68638184 4.4309082 113.2331543 C-9.62412349 127.97766955 -27.85594938 134.56218953 -47.92626953 135.15844727 C-68.36655293 135.34779755 -87.52674755 129.58613269 -102.9375 115.6875 C-103.52402344 115.1925 -104.11054687 114.6975 -104.71484375 114.1875 C-119.21456805 101.03582263 -125.58692794 81.35783611 -127.22265625 62.37890625 C-127.84483351 40.71090681 -120.31021132 20.82011013 -105.45703125 5.0546875 C-76.67350253 -21.94417091 -31.2231512 -24.23159717 0 0 Z " fill="#012A53" transform="translate(772.9375,626.3125)"/>
<path d="M0 0 C1.15426483 -0.00262848 1.15426483 -0.00262848 2.33184814 -0.00531006 C4.87009957 -0.00970426 7.4082811 -0.00680001 9.9465332 -0.00341797 C11.70962029 -0.0040915 13.47270729 -0.00506194 15.23579407 -0.00631714 C18.92689907 -0.00779064 22.61797985 -0.00564993 26.30908203 -0.00097656 C31.05073049 0.00473307 35.79232251 0.00143173 40.53396893 -0.00454903 C44.17208791 -0.00815332 47.81019338 -0.00701688 51.44831276 -0.00442123 C53.19749775 -0.00375225 54.94668396 -0.0045794 56.69586754 -0.00690079 C59.13321588 -0.00942651 61.57047114 -0.00558846 64.0078125 0 C64.73664139 -0.00202423 65.46547028 -0.00404846 66.21638489 -0.00613403 C71.19554912 0.01512919 71.19554912 0.01512919 72.30981445 1.12939453 C72.40892006 2.99575241 72.43780707 4.86587647 72.43920898 6.73486328 C72.44236115 7.93280518 72.44551331 9.13074707 72.44876099 10.36499023 C72.44572464 12.32118286 72.44572464 12.32118286 72.44262695 14.31689453 C72.44330005 15.65828468 72.44427013 16.99967472 72.44552612 18.34106445 C72.44700281 21.15561074 72.44484949 23.97012535 72.44018555 26.78466797 C72.43448826 30.39980084 72.43776742 34.01485948 72.44375801 37.62998962 C72.44736442 40.40084395 72.44622467 43.17168055 72.44363022 45.9425354 C72.44263478 47.92629036 72.44568186 49.910046 72.44876099 51.89379883 C72.44403275 53.69071167 72.44403275 53.69071167 72.43920898 55.52392578 C72.43841339 56.58458252 72.4376178 57.64523926 72.4367981 58.73803711 C72.30981445 61.12939453 72.30981445 61.12939453 71.30981445 62.12939453 C68.92891129 62.24033099 66.57674118 62.28677741 64.19482422 62.29052734 C63.44996262 62.29549225 62.70510101 62.30045715 61.93766785 62.30557251 C59.45884286 62.32024388 56.98008209 62.32700797 54.5012207 62.33251953 C52.77782693 62.33827145 51.05443317 62.34402918 49.33103943 62.34979248 C45.70685528 62.36031968 42.0826934 62.36614958 38.45849609 62.36962891 C33.83524265 62.37508598 29.21228787 62.39904641 24.58912754 62.42760086 C21.02269161 62.44632418 17.4563258 62.4514382 13.88984489 62.45296478 C12.18715742 62.45597524 10.4844707 62.46394893 8.78183174 62.47714996 C-3.78637547 62.56755498 -15.18998424 62.41365914 -24.7253418 53.15283203 C-31.46612056 46.032808 -33.79390873 40.92666114 -34.06518555 31.12939453 C-33.77422605 20.99969344 -31.21086086 15.80964609 -24.23706055 8.40283203 C-17.02502799 1.96509745 -9.42431835 -0.02639479 0 0 Z " fill="#1F99F5" transform="translate(638.690185546875,410.87060546875)"/>
<path d="M0 0 C8.20041994 5.88529395 12.88533443 12.1506117 15 22 C16.12715673 30.8884359 13.72146163 38.96880066 8.390625 46.17578125 C3.33975254 51.58577538 -3.53570313 55.64587502 -11.00390625 56.23828125 C-22.12751646 56.47027751 -30.07031856 54.6598428 -38.30859375 46.9375 C-45.10239715 39.15522174 -45.76446866 29.85058256 -45.21337891 19.96044922 C-44.34992101 12.02730631 -39.27679287 6.4751229 -33.3046875 1.62890625 C-24.1136854 -4.8671071 -9.89122651 -5.63424295 0 0 Z " fill="#032850" transform="translate(663,796)"/>
<path d="M0 0 C4.62 0 9.24 0 14 0 C19.445 17.82 19.445 17.82 25 36 C28.32377089 27.70748232 28.32377089 27.70748232 31.359375 19.3359375 C31.75253906 18.19511719 32.14570312 17.05429687 32.55078125 15.87890625 C32.94652344 14.72261719 33.34226562 13.56632813 33.75 12.375 C34.16121094 11.18003906 34.57242188 9.98507812 34.99609375 8.75390625 C35.99961551 5.83669184 37.00086769 2.91872006 38 0 C41.63 0 45.26 0 49 0 C52.15416875 7.60126253 54.78558368 15.27537766 57.25 23.125 C57.61351562 24.27226563 57.97703125 25.41953125 58.3515625 26.6015625 C59.23773425 29.39999961 60.12047318 32.19946882 61 35 C63.20168331 31.69747504 64.24069039 28.45798763 65.3828125 24.70703125 C65.60194305 24.00100266 65.82107361 23.29497406 66.04684448 22.56755066 C66.74412729 20.31724868 67.43464093 18.06493458 68.125 15.8125 C68.59721119 14.28436761 69.06986232 12.75637109 69.54296875 11.22851562 C70.70041901 7.48723322 71.85180365 3.74413228 73 0 C77.29 0 81.58 0 86 0 C84.76025867 5.92567271 83.27136817 11.60494114 81.3203125 17.33203125 C81.06627655 18.08989426 80.8122406 18.84775726 80.55050659 19.62858582 C79.74627613 22.02468607 78.93580392 24.41861717 78.125 26.8125 C77.58942036 28.40415447 77.05426112 29.99595047 76.51953125 31.58789062 C75.48950956 34.65260387 74.45724288 37.71654408 73.42285156 40.77978516 C71.5998075 46.18141419 69.79889585 51.59027696 68 57 C64.04 57 60.08 57 56 57 C52.04 45.78 48.08 34.56 44 23 C41.33451214 25.66548786 40.56634426 28.69782324 39.3984375 32.1953125 C39.0364476 33.25647781 39.0364476 33.25647781 38.66714478 34.33908081 C37.8975691 36.59922012 37.13620305 38.86202877 36.375 41.125 C35.85470493 42.65773491 35.33387808 44.1902894 34.8125 45.72265625 C33.5354863 49.47970518 32.2658285 53.23916854 31 57 C27.04 57 23.08 57 19 57 C16.93591252 51.09624942 14.87297051 45.19210023 12.81103516 39.28759766 C12.11114558 37.28391011 11.41095685 35.28032703 10.71044922 33.27685547 C0 2.64283167 0 2.64283167 0 0 Z " fill="#032851" transform="translate(687,794)"/>
<path d="M0 0 C12 0 12 0 15.33984375 2.90234375 C16.24575859 4.22076742 17.11028909 5.56832332 17.9375 6.9375 C18.91844411 8.39596531 19.90160139 9.85294399 20.88671875 11.30859375 C21.63574463 12.45497314 21.63574463 12.45497314 22.39990234 13.62451172 C25.16203608 17.72514664 28.2196426 21.5960674 31.25 25.5 C34.09625 29.2125 34.09625 29.2125 37 33 C37.33 22.11 37.66 11.22 38 0 C41.96 0 45.92 0 50 0 C50 18.48 50 36.96 50 56 C39 56 39 56 35.50390625 53.0625 C34.48793723 51.73476008 33.50860805 50.3783925 32.5625 49 C32.03172852 48.28900146 31.50095703 47.57800293 30.95410156 46.84545898 C29.84197856 45.34921671 28.74497024 43.84163301 27.66259766 42.32373047 C25.45508382 39.23839763 23.15987813 36.22323652 20.86694336 33.20117188 C19.32009912 31.15521754 17.79032962 29.09763923 16.265625 27.03515625 C14.30536915 24.2574801 14.30536915 24.2574801 13 23 C12.67 33.89 12.34 44.78 12 56 C8.04 56 4.08 56 0 56 C0 37.52 0 19.04 0 0 Z " fill="#022850" transform="translate(351,878)"/>
<path d="M0 0 C4.29 0 8.58 0 13 0 C15.63388674 6.22506353 18.26649069 12.45066744 20.89794922 18.67675781 C21.79180944 20.79116172 22.68600934 22.90542207 23.58056641 25.01953125 C24.87233132 28.07253194 26.16284083 31.12606076 27.453125 34.1796875 C28.04556 35.57874832 28.04556 35.57874832 28.64996338 37.006073 C30.55220395 41.51118066 32.43633636 46.02355638 34.28417969 50.55126953 C34.61440125 51.35855499 34.9446228 52.16584045 35.28485107 52.99758911 C36 55 36 55 36 57 C31.71 57 27.42 57 23 57 C20.525 51.06 20.525 51.06 18 45 C10.41 45 2.82 45 -5 45 C-6.65 48.96 -8.3 52.92 -10 57 C-14.29 57 -18.58 57 -23 57 C-20.96113916 50.66859194 -18.66260923 44.53195054 -16.09375 38.3984375 C-15.7277771 37.5177359 -15.3618042 36.6370343 -14.98474121 35.72964478 C-13.82610544 32.94352661 -12.66308883 30.15926168 -11.5 27.375 C-10.71977115 25.50011688 -9.93982083 23.62511783 -9.16015625 21.75 C-6.13739967 14.48663404 -3.11149651 7.22588207 0 0 Z " fill="#022850" transform="translate(326,794)"/>
<path d="M0 0 C4.29 0 8.58 0 13 0 C16.00264649 7.00455484 19.00225319 14.01039613 21.99648285 21.01855278 C23.38685985 24.27246723 24.77857605 27.52579526 26.17333984 30.77783203 C27.77578448 34.51425923 29.37242455 38.25314185 30.96875 41.9921875 C31.72339539 43.74847977 31.72339539 43.74847977 32.49328613 45.54025269 C32.95376343 46.62122223 33.41424072 47.70219177 33.88867188 48.81591797 C34.2972644 49.77078094 34.70585693 50.72564392 35.12683105 51.70944214 C36 54 36 54 36 56 C31.71 56 27.42 56 23 56 C21.35 52.37 19.7 48.74 18 45 C10.08 44.67 2.16 44.34 -6 44 C-6.33 45.98 -6.66 47.96 -7 50 C-7.93942486 52.02915769 -8.92598385 54.03875312 -10 56 C-14.29 56 -18.58 56 -23 56 C-20.98552528 49.72238925 -18.69813365 43.67132873 -16.09375 37.6171875 C-15.7277771 36.75868195 -15.3618042 35.90017639 -14.98474121 35.01565552 C-13.82646737 32.3006772 -12.66332618 29.58781672 -11.5 26.875 C-10.71972846 25.04831528 -9.93977781 23.22149347 -9.16015625 21.39453125 C-7.11085428 16.59460019 -5.05655392 11.79682764 -3 7 C-2.41860486 5.64339833 -1.83722331 4.28679083 -1.25585938 2.93017578 C-0.84142578 1.96321777 -0.42699219 0.99625977 0 0 Z " fill="#022850" transform="translate(439,878)"/>
<path d="M0 0 C4.29 0 8.58 0 13 0 C16.68418521 8.32567838 20.35131821 16.65869982 24 25 C24.41871368 25.95694763 24.41871368 25.95694763 24.84588623 26.93322754 C26.53178717 30.78909401 28.21038049 34.64802681 29.88024902 38.51086426 C30.41764726 39.75184542 30.95694971 40.99200373 31.49816895 42.23132324 C32.25790372 43.97226011 33.0099831 45.71653169 33.76171875 47.4609375 C34.19444092 48.45915527 34.62716309 49.45737305 35.07299805 50.48583984 C36 53 36 53 36 56 C31.71 56 27.42 56 23 56 C19 46.25 19 46.25 19 44 C11.08 44.33 3.16 44.66 -5 45 C-6.98 49.95 -6.98 49.95 -9 55 C-10 56 -10 56 -12.94140625 56.09765625 C-14.13636719 56.08605469 -15.33132813 56.07445312 -16.5625 56.0625 C-18.35880859 56.04896484 -18.35880859 56.04896484 -20.19140625 56.03515625 C-21.11824219 56.02355469 -22.04507812 56.01195312 -23 56 C-15.58842293 37.22315724 -7.85181609 18.5957588 0 0 Z " fill="#022750" transform="translate(300,878)"/>
<path d="M0 0 C3.96 0 7.92 0 12 0 C12 7.59 12 15.18 12 23 C19.92 23 27.84 23 36 23 C36 15.41 36 7.82 36 0 C39.96 0 43.92 0 48 0 C48 18.81 48 37.62 48 57 C44.04 57 40.08 57 36 57 C36 49.41 36 41.82 36 34 C28.08 34 20.16 34 12 34 C12 41.59 12 49.18 12 57 C8.04 57 4.08 57 0 57 C0 38.19 0 19.38 0 0 Z " fill="#00254D" transform="translate(437,794)"/>
<path d="M0 0 C2.3125 2.140625 2.3125 2.140625 4 4 C2.02 6.97 0.04 9.94 -2 13 C-3.953125 11.99088542 -5.90625 10.98177083 -7.859375 9.97265625 C-12.25870761 7.97368942 -16.17069583 7.73658341 -21 8 C-21.99 8.66 -22.98 9.32 -24 10 C-24.05167527 12.42267086 -24.05167527 12.42267086 -23 15 C-20.6133762 16.3320691 -18.57733231 17.14364721 -16 18 C-13.62252521 18.80522969 -11.24772328 19.61837517 -8.875 20.4375 C-7.69679688 20.82808594 -6.51859375 21.21867188 -5.3046875 21.62109375 C-0.63039147 23.57147968 2.19614621 25.79421932 5 30 C5.64899198 36.07486678 5.85313696 41.93825234 3.5 47.625 C-2.86527791 53.67201401 -10.14647862 55.36435009 -18.7265625 55.28125 C-26.74685918 54.5921553 -33.27052308 51.57462619 -39 46 C-38.52797514 41.75177626 -36.03344482 39.80010291 -33 37 C-30.64309641 37.88383885 -28.36790657 38.79447437 -26.16796875 40.0234375 C-21.13800565 42.82116845 -17.7611714 43.57611714 -12 43 C-9.59442147 42.13734032 -9.59442147 42.13734032 -8 41 C-7.58219121 38.62694422 -7.58219121 38.62694422 -8 36 C-12.32363597 32.81070198 -17.30848896 31.49461262 -22.38476562 29.98242188 C-27.85622067 28.26599588 -32.2796611 26.2149818 -35.84765625 21.62109375 C-37.93681548 16.86914173 -37.61348498 12.0802071 -37 7 C-34.70892959 2.06538681 -31.70609835 -0.35281968 -27 -3 C-18.0654108 -5.84541057 -8.16362449 -4.35035252 0 0 Z " fill="#032850" transform="translate(413,797)"/>
<path d="M0 0 C1.68757855 0.94174444 3.30997823 1.99831882 4.91796875 3.0703125 C3.52424055 7.50490223 1.3121464 9.94409624 -2.08203125 13.0703125 C-3.17515625 12.4103125 -4.26828125 11.7503125 -5.39453125 11.0703125 C-10.49237871 8.48484506 -15.46980034 8.46864978 -21.08203125 9.0703125 C-22.37836746 10.13676365 -22.37836746 10.13676365 -22.14453125 12.6328125 C-22.12390625 13.4371875 -22.10328125 14.2415625 -22.08203125 15.0703125 C-17.08639044 17.44198036 -12.11486688 19.42269545 -6.83203125 21.0703125 C-1.11204633 22.94547909 2.35755918 24.70279453 5.73046875 29.8203125 C7.78898476 35.45414579 7.69410425 39.91524598 5.29296875 45.3203125 C2.65125578 50.06423367 -0.92633658 52.06766382 -5.76953125 54.3203125 C-15.61504672 56.54948581 -24.71039465 54.98194332 -33.328125 49.69140625 C-34.95523836 48.5422779 -36.52655433 47.31469403 -38.08203125 46.0703125 C-36.52702144 42.25347024 -34.0460763 39.87835518 -31.08203125 37.0703125 C-30.22544922 37.49957031 -30.22544922 37.49957031 -29.3515625 37.9375 C-28.60261719 38.31132813 -27.85367188 38.68515625 -27.08203125 39.0703125 C-26.38464844 39.42351563 -25.68726563 39.77671875 -24.96875 40.140625 C-19.34841986 42.83598759 -14.93784682 44.08500081 -8.70703125 42.4453125 C-6.24888164 40.36533976 -6.35133883 38.1673497 -6.08203125 35.0703125 C-6.6646875 34.90015625 -7.24734375 34.73 -7.84765625 34.5546875 C-10.59724362 33.74191639 -13.33931892 32.90598266 -16.08203125 32.0703125 C-17.11328125 31.76867187 -18.14453125 31.46703125 -19.20703125 31.15625 C-25.76525042 29.1395976 -31.47302941 27.37335373 -35.20703125 21.21484375 C-37.02764122 16.75272378 -36.857171 11.62140536 -35.46484375 7.0390625 C-33.48668455 3.04773243 -30.61385655 0.14051145 -26.74609375 -2.046875 C-18.12497111 -4.90372796 -8.11820702 -3.77266075 0 0 Z " fill="#042951" transform="translate(631.08203125,879.9296875)"/>
<path d="M0 0 C2.84894135 1.44314669 5.58385183 2.94611594 8.27734375 4.66015625 C8.27734375 8.05609103 7.75568427 8.72635506 5.77734375 11.34765625 C5.31328125 11.97027344 4.84921875 12.59289062 4.37109375 13.234375 C3.8296875 13.94013672 3.8296875 13.94013672 3.27734375 14.66015625 C-1.72265625 12.66015625 -1.72265625 12.66015625 -4.00390625 11.59765625 C-7.16997245 10.50590928 -9.69572127 10.46176207 -13.03515625 10.53515625 C-14.10378906 10.55320312 -15.17242188 10.57125 -16.2734375 10.58984375 C-17.48580078 10.62464844 -17.48580078 10.62464844 -18.72265625 10.66015625 C-18.72265625 12.64015625 -18.72265625 14.62015625 -18.72265625 16.66015625 C-13.76216865 19.01513521 -8.86170115 20.95726874 -3.59765625 22.53515625 C1.64124397 24.22792988 5.73649847 26.36301392 9.27734375 30.66015625 C11.08940059 36.09632678 10.98732735 41.64230811 9.08984375 47.03515625 C5.70293574 51.94033337 1.36322571 54.94250928 -4.41015625 56.28515625 C-14.69210999 57.44915101 -23.26441859 56.04077023 -31.91015625 49.91015625 C-32.83828125 49.16765625 -33.76640625 48.42515625 -34.72265625 47.66015625 C-33.16764644 43.84331399 -30.6867013 41.46819893 -27.72265625 38.66015625 C-26.88154297 39.08941406 -26.88154297 39.08941406 -26.0234375 39.52734375 C-18.32195204 43.31924661 -11.35738174 46.42326841 -2.72265625 43.66015625 C-2.30519017 40.78650834 -2.30519017 40.78650834 -2.72265625 37.66015625 C-7.15093229 34.27483326 -12.46997872 33.10732733 -17.75195312 31.64257812 C-23.41367991 29.98430933 -28.16362878 27.94672987 -31.59765625 22.91015625 C-33.38445796 17.74828465 -33.41923987 13.70893162 -31.66015625 8.53515625 C-24.4058175 -2.22934642 -11.84732258 -4.2640416 0 0 Z " fill="#032850" transform="translate(717.72265625,878.33984375)"/>
<path d="M0 0 C3.08303472 1.76738071 5.55433714 3.77989012 8.1328125 6.22265625 C7.23251679 7.56709784 6.31193228 8.89797063 5.3828125 10.22265625 C4.61710937 11.33640625 4.61710937 11.33640625 3.8359375 12.47265625 C3.27390625 13.05015625 2.711875 13.62765625 2.1328125 14.22265625 C-1.80447077 14.22265625 -2.41235714 14.10987145 -5.4921875 12.22265625 C-10.25713345 9.73350538 -14.58077983 9.35341472 -19.8671875 10.22265625 C-24.71253577 12.55560171 -27.6015336 15.34278632 -29.8671875 20.22265625 C-30.65269427 26.64792509 -30.81548976 32.82664317 -26.8671875 38.22265625 C-22.93010622 42.44095762 -19.95277833 44.01874938 -14.171875 44.359375 C-8.02485293 43.99472115 -3.3813989 41.31366033 1.1328125 37.22265625 C3.4428125 39.53265625 5.7528125 41.84265625 8.1328125 44.22265625 C5.33950864 49.80926396 1.80642806 52.79975827 -3.9296875 55.03515625 C-12.36764075 57.47027028 -20.29647712 57.37612484 -28.3046875 53.66015625 C-33.25166234 50.87055779 -36.85181263 48.04525911 -39.8671875 43.22265625 C-40.27710938 42.58972656 -40.68703125 41.95679688 -41.109375 41.3046875 C-45.17435185 33.83354039 -45.20973133 24.68021608 -43.20703125 16.5390625 C-40.02532715 8.59168905 -34.47519816 2.39782901 -26.6640625 -1.0859375 C-18.05772407 -4.39750685 -8.34014853 -3.83977135 0 0 Z " fill="#032851" transform="translate(282.8671875,795.77734375)"/>
<path d="M0 0 C13.53 0 27.06 0 41 0 C41 3.63 41 7.26 41 11 C31.1 11 21.2 11 11 11 C11 15.29 11 19.58 11 24 C19.91 24 28.82 24 38 24 C38 27.63 38 31.26 38 35 C29.42 35 20.84 35 12 35 C12 42.26 12 49.52 12 57 C8.04 57 4.08 57 0 57 C0 38.19 0 19.38 0 0 Z " fill="#02254E" transform="translate(506,794)"/>
<path d="M0 0 C4.97178484 -1.03160953 9.07257293 -1.36333993 14 0 C18.11389826 3.83955448 20.56990716 9.10277662 23.04052734 14.08740234 C24.23595008 16.47033917 25.5936141 18.73638841 27 21 C31.22469387 15.12542568 35.18857437 9.18482306 38.8359375 2.93359375 C40 1 40 1 41 0 C43.35313555 -0.07271741 45.70833668 -0.08370868 48.0625 -0.0625 C49.35285156 -0.05347656 50.64320313 -0.04445313 51.97265625 -0.03515625 C52.97167969 -0.02355469 53.97070312 -0.01195312 55 0 C53.56147819 3.96955733 51.66310898 7.30829813 49.375 10.8515625 C48.31539062 12.49898437 48.31539062 12.49898437 47.234375 14.1796875 C46.48965854 15.32817377 45.74486611 16.47661078 45 17.625 C44.25482055 18.78100012 43.51002512 19.93724788 42.765625 21.09375 C40.19779748 25.07669414 37.62871396 29.05692906 35 33 C34.63303819 35.51502177 34.63303819 35.51502177 34.5859375 38.32421875 C34.54726563 39.35224609 34.50859375 40.38027344 34.46875 41.43945312 C34.4378125 42.51130859 34.406875 43.58316406 34.375 44.6875 C34.33632813 45.77095703 34.29765625 46.85441406 34.2578125 47.97070312 C34.16349884 50.64685334 34.08065874 53.32340342 34 56 C29.71 56 25.42 56 21 56 C21.05542969 54.62070312 21.11085938 53.24140625 21.16796875 51.8203125 C21.35735374 37.89553173 18.645752 29.26554172 10.48974609 18.06640625 C8.13175271 14.79566616 5.98343192 11.39628664 3.8125 8 C3.42642578 7.41798828 3.04035156 6.83597656 2.64257812 6.23632812 C0 2.22136136 0 2.22136136 0 0 Z " fill="#042850" transform="translate(530,878)"/>
<path d="M0 0 C4.78291321 2.65404792 7.60257553 6.32610759 9.75 11.3125 C10.75283923 18.16912171 9.595357 23.58424405 5.75 29.3125 C2.86211392 32.97048903 0.32009999 34.38155371 -4.25 35.3125 C-10.55287574 35.40488743 -15.43636699 34.66769177 -20.25 30.3125 C-24.42700245 24.5372233 -25.83905816 19.38119792 -25.25 12.3125 C-23.42993296 7.02045726 -21.00649821 3.40422383 -16.25 0.3125 C-15.651875 -0.1 -15.05375 -0.5125 -14.4375 -0.9375 C-9.31422212 -2.69405242 -4.81768507 -2.22008995 0 0 Z " fill="#F5F6F7" transform="translate(655.25,805.6875)"/>
<path d="M0 0 C3.96 0 7.92 0 12 0 C12 15.18 12 30.36 12 46 C21.57 46 31.14 46 41 46 C41 49.63 41 53.26 41 57 C27.47 57 13.94 57 0 57 C0 38.19 0 19.38 0 0 Z " fill="#002C55" transform="translate(564,794)"/>
<path d="M0 0 C3.96 0 7.92 0 12 0 C12 14.85 12 29.7 12 45 C21.24 45 30.48 45 40 45 C40 48.63 40 52.26 40 56 C26.8 56 13.6 56 0 56 C0 37.52 0 19.04 0 0 Z " fill="#00244D" transform="translate(490,878)"/>
<path d="M0 0 C4.46876455 3.07848225 8.07974831 6.73924494 9.8125 11.9375 C10.64495805 17.96687476 9.85380405 22.24357804 6.27734375 27.20703125 C3.2175673 30.82164716 0.78951894 32.67316321 -3.9921875 33.3125 C-10.59854376 33.57609526 -14.9685013 33.06920731 -20.1875 28.9375 C-24.43931534 23.454896 -25.88537281 18.85039107 -25.1875 11.9375 C-23.33830845 6.49870134 -19.81163162 3.16388275 -15.1875 -0.0625 C-10.0582896 -1.7722368 -5.12602784 -1.70867595 0 0 Z " fill="#002A52" transform="translate(650.1875,426.0625)"/>
<path d="M0 0 C3.96 0 7.92 0 12 0 C12 18.48 12 36.96 12 56 C8.04 56 4.08 56 0 56 C0 37.52 0 19.04 0 0 Z " fill="#00244C" transform="translate(655,878)"/>
<path d="M0 0 C0.33 0 0.66 0 1 0 C1.17713643 19.00139967 1.34281936 38.00286604 1.49477577 57.00448418 C1.56559646 65.82677708 1.64019957 74.64900803 1.72363281 83.47119141 C1.79632297 91.15841352 1.86199208 98.84565763 1.91914403 106.53301156 C1.94966779 110.60538777 1.98376545 114.67766483 2.02626419 118.74993515 C2.06612083 122.57964992 2.09661873 126.40932306 2.11981392 130.23917389 C2.1300175 131.64773896 2.14369538 133.05628361 2.16103554 134.4647789 C2.18412886 136.3820189 2.1937234 138.29940757 2.20254517 140.21676636 C2.2117631 141.29157698 2.22098103 142.3663876 2.23047829 143.47376823 C2 146 2 146 0 148 C-2.56927031 148.18729753 -5.02873977 148.25574642 -7.59765625 148.23046875 C-8.72185219 148.22978142 -8.72185219 148.22978142 -9.86875916 148.2290802 C-11.45329369 148.22605811 -13.03782526 148.21817306 -14.62231445 148.20581055 C-17.05625858 148.18754683 -19.48982262 148.18530089 -21.92382812 148.18554688 C-23.46094081 148.18063201 -24.9980509 148.17480382 -26.53515625 148.16796875 C-27.26742935 148.16685593 -27.99970245 148.1657431 -28.75416565 148.16459656 C-33.88394762 148.11605238 -33.88394762 148.11605238 -35 147 C-35.13581251 144.28325483 -35.20730682 141.59047853 -35.23706055 138.87182617 C-35.25672882 137.59377357 -35.25672882 137.59377357 -35.27679443 136.28990173 C-35.31876156 133.45763739 -35.35316928 130.62534455 -35.38671875 127.79296875 C-35.41236135 125.83099691 -35.4381454 123.86902691 -35.46406555 121.90705872 C-35.51712481 117.78695127 -35.56603542 113.66681714 -35.61254883 109.54663086 C-35.67286377 104.26359036 -35.74708769 98.98084657 -35.82492352 93.69803905 C-35.88250239 89.64296221 -35.93081141 85.58781358 -35.976511 81.53258705 C-35.99993826 79.58488031 -36.02669842 77.63721074 -36.05682945 75.68959618 C-36.09795571 72.96519377 -36.12615806 70.24094927 -36.15112305 67.51635742 C-36.16609329 66.70944458 -36.18106354 65.90253174 -36.19648743 65.07116699 C-36.218249 61.23165167 -36.19236025 58.2484702 -34 55 C-33.67 55 -33.34 55 -33 55 C-33 85.03 -33 115.06 -33 146 C-22.11 146 -11.22 146 0 146 C0 97.82 0 49.64 0 0 Z " fill="#DBE4E9" transform="translate(400,612)"/>
<path d="M0 0 C3.96 0 7.92 0 12 0 C12 15.18 12 30.36 12 46 C21.57 46 31.14 46 41 46 C41 49.63 41 53.26 41 57 C27.47 57 13.94 57 0 57 C0 38.19 0 19.38 0 0 Z M2 1 C2 18.82 2 36.64 2 55 C14.21 55 26.42 55 39 55 C39 52.36 39 49.72 39 47 C30.09 46.67 21.18 46.34 12 46 C11.67 31.15 11.34 16.3 11 1 C8.03 1 5.06 1 2 1 Z " fill="#00143C" transform="translate(564,794)"/>
<path d="M0 0 C1.50300627 3.31114413 3.00189956 6.62413372 4.5 9.9375 C4.92925781 10.88302734 5.35851562 11.82855469 5.80078125 12.80273438 C6.40986328 14.15141602 6.40986328 14.15141602 7.03125 15.52734375 C7.40830078 16.35999756 7.78535156 17.19265137 8.17382812 18.05053711 C9 20 9 20 9 21 C5.87507749 21.05791844 2.75029234 21.09356746 -0.375 21.125 C-1.26445312 21.14175781 -2.15390625 21.15851563 -3.0703125 21.17578125 C-3.92109375 21.18222656 -4.771875 21.18867188 -5.6484375 21.1953125 C-6.82672119 21.21102295 -6.82672119 21.21102295 -8.02880859 21.22705078 C-10 21 -10 21 -12 19 C-12.46399845 14.36001555 -12.50308708 11.98682467 -10.375 7.8125 C-3.77777778 0 -3.77777778 0 0 0 Z " fill="#1F9CF4" transform="translate(338,291)"/>
<path d="M0 0 C5.01416329 1.28269293 7.70837509 2.99667241 11 7 C14.10279689 13.20559377 15.13816452 18.42702848 15.0625 25.3125 C15.05347656 26.38113281 15.04445313 27.44976562 15.03515625 28.55078125 C15.02355469 29.35902344 15.01195312 30.16726563 15 31 C14.34 31 13.68 31 13 31 C12.87625 30.45214844 12.7525 29.90429688 12.625 29.33984375 C10.92113878 22.7906272 8.17199065 17.21295291 4.86914062 11.35522461 C2.79604854 7.65011339 1.20542024 4.07219688 0 0 Z " fill="#20A0F4" transform="translate(667,281)"/>
<path d="M0 0 C2.60332156 3.16063087 4.14038576 6.3431652 5.6875 10.125 C6.34298828 11.70667969 6.34298828 11.70667969 7.01171875 13.3203125 C8 16 8 16 8 18 C3.05 18 -1.9 18 -7 18 C-5.02989474 11.79416842 -2.74844552 5.90148454 0 0 Z " fill="#E7EBEF" transform="translate(332,810)"/>
<path d="M0 0 C2.26071155 3.39106733 3.65268823 6.91514137 5.125 10.6875 C5.40214844 11.38939453 5.67929687 12.09128906 5.96484375 12.81445312 C6.64635741 14.54173775 7.32359772 16.27070737 8 18 C3.05 18 -1.9 18 -7 18 C-5.02989474 11.79416842 -2.74844552 5.90148454 0 0 Z " fill="#F2F5F6" transform="translate(445,893)"/>
<path d="M0 0 C3.06725956 3.06725956 4.08632833 5.10524989 5.6875 9.0625 C6.34298828 10.65771484 6.34298828 10.65771484 7.01171875 12.28515625 C8 15 8 15 8 17 C3.05 17 -1.9 17 -7 17 C-4.69 11.39 -2.38 5.78 0 0 Z " fill="#F3F5F6" transform="translate(306,894)"/>
<path d="M0 0 C9.57 0 19.14 0 29 0 C29 3.63 29 7.26 29 11 C15.47 11 1.94 11 -12 11 C-12 10.34 -12 9.68 -12 9 C0.87 9 13.74 9 27 9 C27 6.36 27 3.72 27 1 C18.09 1 9.18 1 0 1 C0 0.67 0 0.34 0 0 Z " fill="#051B44" transform="translate(576,840)"/>
<path d="M0 0 C11.88 0 23.76 0 36 0 C34.18547246 6.65326765 32.50449907 12.6791214 30 19 C28.92769285 15.78307855 29.06305396 14.75977701 29.8125 11.5625 C29.98394531 10.80066406 30.15539062 10.03882813 30.33203125 9.25390625 C31 7 31 7 33 3 C22.44 2.67 11.88 2.34 1 2 C0.67 2.66 0.34 3.32 0 4 C0 2.68 0 1.36 0 0 Z " fill="#011F48" transform="translate(606,612)"/>
<path d="M0 0 C0.33 0 0.66 0 1 0 C1.87019244 8.60578138 2.12607367 17.1039815 2.0625 25.75 C2.05798828 26.9359375 2.05347656 28.121875 2.04882812 29.34375 C2.03719329 32.22918911 2.01926453 35.11460174 2 38 C-1.63 38 -5.26 38 -9 38 C-9 37.01 -9 36.02 -9 35 C-6.03 35.33 -3.06 35.66 0 36 C0 24.12 0 12.24 0 0 Z " fill="#001C46" transform="translate(399,896)"/>
<path d="M0 0 C11.88 0 23.76 0 36 0 C36 0.66 36 1.32 36 2 C25.11 2 14.22 2 3 2 C2.67 3.32 2.34 4.64 2 6 C1.34 4.02 0.68 2.04 0 0 Z " fill="#021D47" transform="translate(421,612)"/>
<path d="M0 0 C4.26086957 6.39130435 4.26086957 6.39130435 3.625 10.3125 C3.41875 10.869375 3.2125 11.42625 3 12 C2.01 11.67 1.02 11.34 0 11 C-0.99 11.33 -1.98 11.66 -3 12 C-3 12.99 -3 13.98 -3 15 C-3.66 15 -4.32 15 -5 15 C-4.54705135 13.24859857 -4.08741252 11.49892656 -3.625 9.75 C-3.36976563 8.77546875 -3.11453125 7.8009375 -2.8515625 6.796875 C-2.10401491 4.34162697 -1.22876183 2.24382595 0 0 Z " fill="#ECF0F3" transform="translate(531,668)"/>
<path d="M0 0 C0.33 0 0.66 0 1 0 C1.33 6.6 1.66 13.2 2 20 C9.26 20.66 16.52 21.32 24 22 C24 22.33 24 22.66 24 23 C16.08 23 8.16 23 0 23 C0 15.41 0 7.82 0 0 Z " fill="#E8EDF0" transform="translate(449,794)"/>
<path d="M0 0 C0.69738281 0.00451172 1.39476562 0.00902344 2.11328125 0.01367188 C3.82555803 0.0253998 5.53779033 0.04333347 7.25 0.0625 C3.95668703 1.95119515 0.92461609 2.60400975 -2.8125 3.1875 C-4.37677734 3.43886719 -4.37677734 3.43886719 -5.97265625 3.6953125 C-8.75 4.0625 -8.75 4.0625 -11.75 4.0625 C-11.75 3.0725 -11.75 2.0825 -11.75 1.0625 C-7.88276369 -0.20332219 -4.01848738 -0.0493765 0 0 Z " fill="#EDF0F3" transform="translate(722.75,640.9375)"/>
<path d="M0 0 C2.35119399 3.52679099 2.21443452 5.02879485 2.125 9.1875 C2.10695313 10.27417969 2.08890625 11.36085938 2.0703125 12.48046875 C2.03550781 13.72763672 2.03550781 13.72763672 2 15 C1.34 15 0.68 15 0 15 C-0.39143394 13.25360243 -0.76254287 11.50264082 -1.125 9.75 C-1.33382812 8.77546875 -1.54265625 7.8009375 -1.7578125 6.796875 C-2.0202996 3.76557234 -1.61988849 2.51982654 0 0 Z " fill="#23A2EC" transform="translate(680,297)"/>
<path d="M0 0 C0.66 0 1.32 0 2 0 C0.3186083 6.48707154 -1.53062327 12.7677635 -4 19 C-5.07230715 15.78307855 -4.93694604 14.75977701 -4.1875 11.5625 C-4.01605469 10.80066406 -3.84460938 10.03882813 -3.66796875 9.25390625 C-2.99803909 6.99338337 -2.08443017 5.08742092 -1 3 C-0.67 2.01 -0.34 1.02 0 0 Z " fill="#0A1E44" transform="translate(640,612)"/>
<path d="M0 0 C0.33 0.66 0.66 1.32 1 2 C4.3 2 7.6 2 11 2 C11 2.99 11 3.98 11 5 C6.71 5 2.42 5 -2 5 C-1.34 3.35 -0.68 1.7 0 0 Z " fill="#041D46" transform="translate(305,846)"/>
<path d="M0 0 C0.33 0.99 0.66 1.98 1 3 C-2.75 6 -2.75 6 -5 6 C-5.185625 6.639375 -5.37125 7.27875 -5.5625 7.9375 C-7 10 -7 10 -10.625 10.75 C-11.73875 10.8325 -12.8525 10.915 -14 11 C-10.29503345 7.98971467 -6.50381392 5.11467387 -2.671875 2.26953125 C-1.05968331 1.10485805 -1.05968331 1.10485805 0 0 Z " fill="#011E41" transform="translate(689,541)"/>
<path d="M0 0 C1.5 1.375 1.5 1.375 3 3 C3 3.66 3 4.32 3 5 C-1.29 5 -5.58 5 -10 5 C-10 4.34 -10 3.68 -10 3 C-6.7 2.67 -3.4 2.34 0 2 C0 1.34 0 0.68 0 0 Z " fill="#031A44" transform="translate(472,929)"/>
<path d="M0 0 C0.33 0 0.66 0 1 0 C1.66 6.6 2.32 13.2 3 20 C-1 16 -1 16 -1.171875 12.109375 C-1.05282533 10.65432351 -0.91150184 9.20095307 -0.75 7.75 C-0.68425781 7.00492188 -0.61851562 6.25984375 -0.55078125 5.4921875 C-0.38632189 3.65964035 -0.19571111 1.82947345 0 0 Z " fill="#EFF2F3" transform="translate(386,892)"/>
<path d="M0 0 C3.96 0 7.92 0 12 0 C12.33 0.99 12.66 1.98 13 3 C8.71 3 4.42 3 0 3 C0 2.01 0 1.02 0 0 Z " fill="#071E46" transform="translate(349,848)"/>
<path d="M0 0 C0.99 0.33 1.98 0.66 3 1 C0.01581671 4.32851213 -2.84562769 6.3205729 -7 8 C-7.99 7.67 -8.98 7.34 -10 7 C-9.16855469 6.61908203 -9.16855469 6.61908203 -8.3203125 6.23046875 C-7.59585938 5.88628906 -6.87140625 5.54210937 -6.125 5.1875 C-5.40570312 4.85105469 -4.68640625 4.51460937 -3.9453125 4.16796875 C-1.69457194 3.00532903 -1.69457194 3.00532903 0 0 Z " fill="#091B43" transform="translate(763,747)"/>
<path d="M0 0 C0.66 0 1.32 0 2 0 C2.56638908 4.81430721 0.82561627 7.20307814 -2 11 C-3 9 -3 9 -2.44140625 6.8359375 C-2.15136719 6.02382813 -1.86132812 5.21171875 -1.5625 4.375 C-1.27503906 3.55773437 -0.98757813 2.74046875 -0.69140625 1.8984375 C-0.46324219 1.27195312 -0.23507812 0.64546875 0 0 Z " fill="#E5ECEF" transform="translate(610,713)"/>
<path d="M0 0 C-0.33 0.99 -0.66 1.98 -1 3 C-3.875 3.125 -3.875 3.125 -7 3 C-7.66 2.34 -8.32 1.68 -9 1 C-6.04335481 -0.4783226 -3.25770263 -0.06032783 0 0 Z " fill="#EEF1F2" transform="translate(652,838)"/>
<path d="M0 0 C1.17825358 0.90172468 2.34231577 1.82201502 3.5 2.75 C4.1496875 3.26046875 4.799375 3.7709375 5.46875 4.296875 C7 6 7 6 7 10 C6.4225 9.21625 5.845 8.4325 5.25 7.625 C3.17102363 5.19952756 1.90959667 4.14305583 -1 3 C-0.67 2.01 -0.34 1.02 0 0 Z " fill="#0B1D45" transform="translate(283,833)"/>
<path d="M0 0 C0.226875 0.53625 0.45375 1.0725 0.6875 1.625 C2.43382056 4.78500863 4.6402849 7.2676983 7 10 C3.15719715 8.75368556 0.92680104 7.63951308 -1 4 C-0.6875 1.75 -0.6875 1.75 0 0 Z " fill="#071C43" transform="translate(378,814)"/>
<path d="M0 0 C3.63 0 7.26 0 11 0 C7.5647952 2.29013653 6.014669 2.17842973 2 2 C1.67 2.66 1.34 3.32 1 4 C0.67 2.68 0.34 1.36 0 0 Z " fill="#011540" transform="translate(687,794)"/>
<path d="M0 0 C0 3.99904969 -1.72586967 5.80200422 -4 9 C-4.66 8.01 -5.32 7.02 -6 6 C-4.02 4.02 -2.04 2.04 0 0 Z " fill="#173155" transform="translate(670,629)"/>
<path d="M0 0 C0.99 1.485 0.99 1.485 2 3 C2.87072072 4.23220174 3.74584102 5.46130459 4.625 6.6875 C5.07101562 7.31011719 5.51703125 7.93273437 5.9765625 8.57421875 C6.31429688 9.04472656 6.65203125 9.51523437 7 10 C6.01 10 5.02 10 4 10 C1.09677182 6.35022743 0 4.74147821 0 0 Z " fill="#182B50" transform="translate(252,828)"/>
<path d="M0 0 C2 3 2 3 1.625 5.6875 C1.41875 6.450625 1.2125 7.21375 1 8 C0.01 8 -0.98 8 -2 8 C-1.47731534 5.23723823 -0.89130413 2.6739124 0 0 Z " fill="#E4EAEE" transform="translate(730,814)"/>
<path d="M0 0 C0.66 0.99 1.32 1.98 2 3 C1.01 4.98 0.02 6.96 -1 9 C-1.66 9 -2.32 9 -3 9 C-2.01 6.03 -1.02 3.06 0 0 Z " fill="#0F244A" transform="translate(489,697)"/>
<path d="M0 0 C0.66 0.33 1.32 0.66 2 1 C-1.36423277 3.96052484 -4.69159287 4.92289822 -9 6 C-6.45368965 3.02930459 -3.57769851 1.5224249 0 0 Z " fill="#031541" transform="translate(351,241)"/>
<path d="M0 0 C0.66 0 1.32 0 2 0 C3.75 2.25 3.75 2.25 5 5 C4.34 6.32 3.68 7.64 3 9 C2.01 6.03 1.02 3.06 0 0 Z " fill="#E4ECEF" transform="translate(353,828)"/>
</svg>
